<svg width="174" height="174" viewBox="0 0 174 174" fill="none" xmlns="http://www.w3.org/2000/svg">
<circle cx="87" cy="87" r="87" fill="#67BF21"/>
<path d="M148 87.39C148 86.4856 147.267 85.7524 146.362 85.7524H119.279C117.175 85.7524 115.209 86.7904 114.033 88.5219L105.564 100.994L88.046 74.7335C85.5638 71.0125 80.0731 70.9773 77.5428 74.6663L69.9383 85.7524H56.7259C53.9809 85.7524 51.7556 87.9614 51.7556 90.6863C51.7556 93.4111 53.9809 95.6201 56.7259 95.6201H71.8502C73.9434 95.6201 75.901 94.5923 77.0791 92.8748L82.7298 84.6369L100.263 110.92C102.752 114.651 108.263 114.674 110.783 110.963L121.202 95.6201H137.215C138.228 95.6201 138.999 96.5319 138.794 97.5237C133.892 121.214 112.768 139.029 87.4518 139.029C58.5039 139.029 35.037 115.735 35.037 87C35.037 58.2649 58.5039 34.9706 87.4518 34.9706C102.263 34.9706 115.64 41.0688 125.172 50.8739C126.136 51.8655 127.445 52.4632 128.828 52.4632C132.751 52.4632 134.961 48.1116 132.266 45.2614C121.056 33.4057 105.125 26 87.4518 26C53.5129 26 26 53.3106 26 87C26 120.689 53.5129 148 87.4518 148C117.79 148 142.994 126.176 148 97.4814V87.39Z" fill="white" stroke="white" stroke-width="8"/>
</svg>
